# xmcd
#
# Track frame offsets:
#	183
#	15840
#	44855
#	60218
#	78373
#	96925
#	106448
#	127018
#	137690
#	149383
#	163883
#
# Disc length: 2315 seconds
#
# Revision: 1
# Processed by: cddbd v1.4PL0 Copyright (c) Steve Scherf et al.
# Submitted via: audiograbber 1.81.03
#
DISCID=9409090b
DTITLE=Alexis Korner - A New Generation Of Blues
DYEAR=1900
DGENRE=Blues
TTITLE0=Mary Open The Door
TTITLE1=Little Bitty Girl
TTITLE2=Baby Don't You Love Me
TTITLE3=Go Down Sunshine
TTITLE4=The Same For You
TTITLE5=I'm Tore Down
TTITLE6=In The Evening
TTITLE7=Somethin' You Got
TTITLE8=New Worried Blues
TTITLE9=What's That Sound I Hear
TTITLE10=A Flower
EXTD=Columbia No1
EXTT0=
EXTT1=
EXTT2=
EXTT3=
EXTT4=
EXTT5=
EXTT6=
EXTT7=
EXTT8=
EXTT9=
EXTT10=
PLAYORDER=
